<?xml version="1.0" encoding="utf-8"?>
<!-- Generator: Adobe Illustrator 27.7.0, SVG Export Plug-In . SVG Version: 6.00 Build 0)  -->
<svg version="1.1" id="Layer_1" xmlns="http://www.w3.org/2000/svg" xmlns:xlink="http://www.w3.org/1999/xlink" x="0px" y="0px"
	 viewBox="0 0 1288 1572" style="enable-background:new 0 0 1288 1572;" xml:space="preserve">
<g>
	<path d="M164.8,280.5l-12.2-28.8c-0.2-0.5-0.6-0.8-1.1-0.9c-3.1-0.7-6-2-8.7-3.9c-11.1-7.6,5.9-22.1,11.8-25.4
		c3.2-1.8,7.3-3.7,12.3-5.8c25.4-10.2,47.8-18.1,67.3-23.4c11.2-3.1,21-5.9,29.3-8.4c14-4.2,28.3-8.3,42.9-12.5
		c16.3-4.7,32.7-7.2,49.2-7.8c11.7-0.4,22.8-0.7,33.1-0.9c2,0,4-0.4,5.9-1.1c46.6-16.9,92.2-33.5,136.9-49.8c3.5-1.3,7.5-2.3,12.1-3
		c11.5-1.9,23-3.2,34.6-3.9c26.5-1.7,52.5-1.8,78.2-0.2c14.6,0.9,29.5,2.2,44.9,4c36.9,4.3,76,10.1,117.1,17.5
		c14.3,2.6,27.3,5.2,39.1,7.8c11.9,2.7,27.2,6.6,45.9,11.7c4.1,1.1,8.1,1.9,12.2,2.3c28.7,3,57.3,5.9,85.9,8.6
		c6.8,0.6,13.7,1,20.5,1.2c15.9,0.3,32,0.6,48.3,0.7c0.4,0,0.7,0.3,0.7,0.6l0.4,7.5c0,0.3-0.1,0.5-0.4,0.6l-15.7,7.5
		c-0.2,0.1-0.2,0.3-0.2,0.4c0,0,0,0,0,0l27.3,43.5c0.3,0.5,0.4,1.1,0.4,1.6l-1.5,12.6c-0.1,1.1-0.6,1.3-1.5,0.7
		c-0.7-0.5-1.5-0.6-2.2-0.5c-0.4,0.1-0.6,0.3-0.7,0.7c-0.5,1.9-0.9,3.6-1,5.4c-0.6,8.7-1.1,17.3-1.4,25.9c0,0.3-0.2,0.6-0.6,0.7
		c-5.1,1.3-10.4,3.5-14.3,6.9c-3.1,2.7-4.3,6.8-7.1,9.8c-3.9,4.2-8.9,6.9-15.3,7.9c-19,3.1-38.9,5.9-59.8,8.4
		c-4.9,0.6-9.7,1-14.3,1.2c-0.2,0-0.4-0.2-0.4-0.4c0,0,0,0,0,0c0.1-14.9,0.1-29.7,0-44.3c-0.2-28.9-18.7-56.4-45.1-68.2
		c-45.9-20.6-98.4,6.7-107.8,56.3c-0.9,4.9-1.4,11.2-1.3,18.7c0.1,13.2,0.1,26.1,0,38.6c0,0.2-0.1,0.3-0.3,0.3l-384.8,0.8
		c-0.3,0-0.5-0.2-0.5-0.5l0,0c0-17.2,0-33.7-0.1-49.5c-0.1-6.9-1.5-14.4-4.3-22.4c-12-34.4-48.4-54.7-84.1-47.8
		c-30.4,5.9-54.2,30.4-59.1,61.1c-0.8,4.9-1.1,11.5-1,19.8c0.1,13.2,0.1,26.2,0,39.2c0,0.3-0.3,0.6-0.6,0.6c0,0,0,0,0,0
		c-27.9-0.5-55.9-0.9-84.1-1.1c-8.2-0.1-14.3-0.5-18.4-1.2c-6.7-1.2-13-2.8-18.9-4.9c-2-0.7-4.1-2-5.5-3.6c-0.5-0.5-0.4-1.4,0.1-1.9
		c4-4.2,12.6-6.7,17.9-8.3C164.9,281.2,165,280.9,164.8,280.5z M393.2,164.8c-0.2,0.1-0.3,0.2-0.3,0.4c0,0.2,0.1,0.4,0.3,0.4
		l58.8,1.3c0.9,0,1.7-0.1,2.5-0.4L578,117.4c0.9-0.4,0.9-0.6-0.1-0.6l-42.4-2.7c-1.2-0.1-2.4,0.1-3.5,0.5
		c-44.5,16.2-89.1,32.4-133.8,48.6C396.6,163.8,395,164.3,393.2,164.8z M690,128.1c0-0.1,0-0.3-0.1-0.3c-5.1-2.8-11.7-3.3-17.8-3.8
		c-23.1-2.1-46.2-3.9-69.3-5.3c-0.8-0.1-1.7,0.1-2.5,0.4l-76,30.1c-0.1,0.1-0.2,0.2-0.2,0.4c0,0,0,0,0,0c0.5,0.8,1,1.5,1.5,2.3
		c3.2,4.3-0.6,12.1-3.1,16.1c-0.1,0.2-0.1,0.5,0.1,0.6c0.1,0,0.2,0.1,0.2,0.1c44-0.1,86.6,0.4,129.3-0.6c9-0.2,18.9-3.2,28.2-5.6
		c0.6-0.1,1.1-0.6,1.2-1.2L690,128.1z M694,130.2l-7.5,29.8c-0.1,0.2,0.1,0.5,0.3,0.5c0.1,0,0.1,0,0.2,0c8.8-2.4,17.5-5,26.2-7.7
		c2.2-0.7,4.2-1.7,6-3c0.9-0.6,1.1-1.8,0.5-2.7c-0.2-0.4-0.6-0.7-0.9-1c-7.4-5.9-15.4-11.3-24-16.2C694.3,129.7,694,129.8,694,130.2
		z M495,167.7c0.2,0,0.3-0.1,0.3-0.3c0-0.1,0-0.1-0.1-0.2l-3.6-4.8c-0.1-0.1-0.2-0.2-0.4-0.1l-12.4,4.6c-0.2,0.1-0.3,0.3-0.2,0.4
		c0,0.1,0.2,0.2,0.3,0.2L495,167.7z M1025.6,213c2.6,0,4.7-8.7,4.7-19.4c0,0,0,0,0,0c0-10.7-2.1-19.4-4.7-19.4c0,0,0,0,0,0
		c-2.6,0-4.7,8.7-4.7,19.4C1020.9,204.3,1023,213,1025.6,213z M225.8,198.4c-3.4,4.6-7.2,7.6-12.6,10.1c-9.3,4.4-18.7,8.6-28.1,12.8
		c-0.1,0-0.1,0.1-0.1,0.2c-0.1,0.3,0.1,0.5,0.5,0.6c0.1,0,0.2,0,0.2,0c23.8-4.1,47.5-9,71.2-14.8c2.4-0.6,4.9-1.6,6.8-3.3
		c6.5-5.9,11.8-14,16.4-21.3c0.5-0.8,0.3-1.1-0.6-0.8c-13.3,4.1-26.6,8-39.9,11.5c-3.5,0.9-7.3,2-11.4,3.3
		C227.2,197.1,226.4,197.6,225.8,198.4z"/>
	<path d="M418.8,253.4c0,37.9-30.8,68.7-68.7,68.7s-68.7-30.8-68.7-68.7v0c0-37.9,30.8-68.7,68.7-68.7c0,0,0,0,0,0
		C388,184.7,418.8,215.4,418.8,253.4z M357.8,201.6c0-0.1-0.1-0.3-0.3-0.3h-14.9c-0.1,0-0.3,0.1-0.3,0.3v0.7c0,0.1,0.1,0.3,0.3,0.3
		h14.9c0.1,0,0.3-0.1,0.3-0.3V201.6z M308.2,224.2c6.7-9.1,15.3-15.8,26-19.3c0.3-0.1,0.5-0.4,0.4-0.7l-0.1-0.3
		c-0.1-0.2-0.2-0.3-0.4-0.2c-10.9,3.7-19.8,10.3-26.6,19.6c-0.2,0.3-0.2,0.6,0.1,0.8l0.3,0.2C307.9,224.4,308.1,224.3,308.2,224.2z
		 M393,223.8c-6.5-9.6-15.9-16.5-26.9-20.1c-0.1,0-0.2,0-0.3,0.1l-0.1,0.2c-0.1,0.3,0,0.6,0.3,0.8c0,0,0,0,0,0
		c10.7,3.7,19.3,10.1,25.8,19.2c0.2,0.3,0.5,0.3,0.8,0.2l0.3-0.1C393.1,224.1,393.1,224,393,223.8z M356.6,207.9
		c0.1-0.7-0.3-1.3-0.9-1.4c-0.1,0-0.2,0-0.3,0l-10.8,0c-0.7,0-1.2,0.5-1.2,1.2c0,0.1,0,0.2,0,0.3l5.4,24.4c0.2,0.7,0.8,1.1,1.5,0.9
		c0.5-0.1,0.8-0.5,0.9-0.9L356.6,207.9z M342.5,237.1l-6.9-28.1c-0.1-0.3-0.4-0.5-0.7-0.4c0,0,0,0-0.1,0
		c-9.5,3.5-17.1,9.3-23.1,17.3c-0.2,0.2-0.1,0.5,0.1,0.6c0,0,0,0,0,0l25.1,14.6c0.2,0.1,0.4,0.1,0.5,0l4.6-3.5
		C342.5,237.6,342.6,237.3,342.5,237.1z M388.3,225.9c-6-7.9-13.8-13.9-23.2-17.3c-0.3-0.1-0.5,0-0.6,0.3c0,0,0,0,0,0.1l-6.8,27.9
		c-0.1,0.4,0,0.6,0.3,0.9l4.5,3.4c0.2,0.1,0.4,0.1,0.6,0l25.2-14.7C388.4,226.4,388.4,226.2,388.3,225.9
		C388.3,226,388.3,226,388.3,225.9z M299.8,245.1c0.9-5.1,2.4-9.9,4.6-14.2c0.1-0.2,0-0.4-0.1-0.5l-0.3-0.2
		c-0.2-0.2-0.5-0.1-0.6,0.1c0,0,0,0.1-0.1,0.1c-2.4,4.8-4,9.8-4.8,15c0,0.1,0.1,0.2,0.2,0.3l0.3,0.1
		C299.4,245.7,299.7,245.5,299.8,245.1z M396.9,230.4c-0.2-0.3-0.5-0.4-0.8-0.3l-0.2,0.1c-0.1,0.1-0.2,0.2-0.1,0.3c0,0,0,0,0,0
		c2.3,4.8,3.9,9.6,4.8,14.6c0.1,0.4,0.3,0.5,0.6,0.4l0.3-0.1c0.1,0,0.2-0.1,0.2-0.2C401,240.4,399.4,235.4,396.9,230.4z
		 M395.7,246.1c0.6,0,1-0.6,1-1.1c0-0.1,0-0.2,0-0.2l-3.6-11.2c-0.2-0.6-0.8-0.9-1.3-0.7c-0.1,0-0.1,0.1-0.2,0.1l-23.2,13.6
		c-0.5,0.3-0.7,0.9-0.4,1.5c0.2,0.4,0.6,0.6,1,0.5L395.7,246.1z M308.7,233c-0.5-0.3-1.2-0.1-1.5,0.4c0,0.1-0.1,0.1-0.1,0.2l-3.5,11
		c-0.2,0.6,0.1,1.2,0.7,1.4c0.1,0,0.2,0,0.2,0l26.4,2.4c0.6,0.1,1.2-0.4,1.2-1c0-0.4-0.2-0.9-0.6-1.1L308.7,233z M297.9,253.2
		c-0.2,11.6,3.7,22.7,10.7,31.9c0.1,0.1,0.3,0.2,0.4,0.1l0.3-0.1c0.3-0.1,0.4-0.4,0.2-0.7c0,0,0-0.1,0-0.1
		c-6.8-9.1-10.3-19.4-10.4-30.8c0-0.3-0.3-0.6-0.6-0.6l-0.3,0C298.1,252.9,297.9,253,297.9,253.2
		C297.9,253.2,297.9,253.2,297.9,253.2z M401.1,253.3c0,11.4-3.6,22.1-10.6,31.1c-0.1,0.2-0.1,0.4,0.1,0.5l0.2,0.2
		c0.2,0.2,0.5,0.1,0.7-0.1c0,0,0,0,0,0c7.1-9.3,10.7-19.8,10.8-31.5c0-0.3-0.2-0.6-0.6-0.6l-0.3,0
		C401.2,252.9,401.1,253,401.1,253.3z M313,281.5l21.3-19.1c0.3-0.3,0.4-0.6,0.3-1l-1.7-5.1c-0.1-0.4-0.4-0.6-0.8-0.6l-28.5-2.5
		c-0.3,0-0.5,0.2-0.5,0.4c0,0,0,0,0,0.1c0.1,10.1,3.2,19.4,9.2,27.7C312.4,281.7,312.7,281.8,313,281.5
		C313,281.6,313,281.6,313,281.5z M365.4,261.5c-0.2,0.3-0.1,0.6,0.1,0.8l21.5,19.2c0.3,0.3,0.6,0.3,0.9-0.1c6-8.3,9-17.6,9.2-27.7
		c0-0.3-0.1-0.4-0.5-0.4l-28.9,2.5c-0.4,0-0.6,0.2-0.7,0.6C366.8,258.1,366.3,259.9,365.4,261.5z M318.1,286.1
		c-0.6,0.5-0.6,1.4-0.1,2c0.1,0.1,0.1,0.1,0.2,0.2l8.8,6.4c0.6,0.5,1.5,0.3,2-0.3c0.1-0.1,0.1-0.2,0.2-0.3l10.1-23.3
		c0.3-0.7,0-1.6-0.7-1.9c-0.5-0.2-1.1-0.1-1.5,0.2L318.1,286.1z M371,294.1c0.3,0.7,1.2,1.1,1.9,0.8c0.1,0,0.2-0.1,0.3-0.2l8.7-6.3
		c0.7-0.5,0.8-1.4,0.3-2.1c-0.1-0.1-0.1-0.2-0.2-0.2l-18.8-16.7c-0.6-0.5-1.5-0.5-2.1,0.1c-0.4,0.4-0.5,1.1-0.3,1.6L371,294.1z
		 M334.7,297.5c-0.1,0.3,0,0.5,0.3,0.6c9.9,3.3,19.9,3.3,30,0c0.4-0.1,0.5-0.4,0.3-0.8l-11.6-26c-0.2-0.4-0.5-0.6-1-0.6l-5.5,0
		c-0.5,0-0.8,0.2-1,0.7L334.7,297.5z M327.1,299.1c-4.7-2.5-9-5.6-12.8-9.3c-0.2-0.2-0.5-0.2-0.7,0l-0.2,0.2c-0.1,0.1-0.1,0.2,0,0.4
		c3.7,3.9,8.1,7,13,9.5c0.3,0.1,0.6,0,0.7-0.2c0,0,0,0,0,0l0.1-0.2C327.2,299.2,327.2,299.1,327.1,299.1z M386.6,290
		c-0.1-0.1-0.2-0.1-0.4-0.1l-12.9,9.4c-0.1,0.1-0.1,0.2-0.1,0.4c0,0,0,0,0,0l0.4,0.5c0.1,0.1,0.2,0.1,0.4,0.1l12.9-9.4
		c0.1-0.1,0.1-0.2,0.1-0.4c0,0,0,0,0,0L386.6,290z M366.9,301.6c-10.8,3.7-22.7,3.7-33.5,0c-0.2-0.1-0.4,0-0.4,0.2l-0.2,0.3
		c-0.1,0.2-0.1,0.5,0.2,0.7c0,0,0.1,0,0.1,0c11,3.8,22.3,3.9,33.8,0.1c0.4-0.1,0.5-0.4,0.4-0.7l-0.1-0.4
		C367.2,301.6,367.1,301.5,366.9,301.6z"/>
	<path d="M954.6,253.4c0,37.9-30.8,68.7-68.7,68.7l0,0c-37.9,0-68.7-30.8-68.7-68.7v0c0-37.9,30.8-68.7,68.7-68.7l0,0
		C923.8,184.7,954.6,215.4,954.6,253.4L954.6,253.4z M893.5,201.6c0-0.1-0.1-0.3-0.3-0.3l0,0h-14.8c-0.1,0-0.3,0.1-0.3,0.3v0.7
		c0,0.1,0.1,0.3,0.3,0.3h14.8c0.1,0,0.3-0.1,0.3-0.3c0,0,0,0,0,0V201.6z M844.2,223.9c6.7-9,15-15.3,25.9-19.1
		c0.2-0.1,0.3-0.3,0.3-0.5l-0.1-0.4c-0.1-0.3-0.2-0.4-0.5-0.3c-11.1,3.8-20,10.4-26.7,19.8c-0.2,0.2-0.1,0.4,0.1,0.5l0.2,0.1
		C843.7,224.2,844,224.2,844.2,223.9z M928.3,224.3l0.3-0.1c0.3-0.1,0.3-0.3,0.1-0.6c-6.9-9.6-15.8-16.2-26.8-19.9
		c-0.2-0.1-0.3,0-0.3,0.2l-0.1,0.3c-0.1,0.3,0.1,0.6,0.4,0.8c10.7,3.7,19.4,10.2,25.9,19.3C927.9,224.4,928.1,224.4,928.3,224.3z
		 M892.5,208c0.1-0.7-0.3-1.4-1-1.5c-0.1,0-0.2,0-0.3,0l-10.7,0c-0.7,0-1.3,0.6-1.3,1.3c0,0.1,0,0.2,0,0.3l5.3,24.3
		c0.2,0.7,0.8,1.1,1.5,1c0.5-0.1,0.9-0.5,1-1L892.5,208z M872.9,241.1c0.2,0.1,0.5,0.1,0.7,0l4.5-3.4c0.3-0.2,0.4-0.5,0.3-0.8
		l-6.9-28c0-0.2-0.3-0.3-0.5-0.3c0,0,0,0,0,0c-9.6,3.5-17.3,9.3-23.2,17.3c-0.1,0.2-0.1,0.5,0.1,0.6c0,0,0,0,0,0L872.9,241.1z
		 M900.3,208.9l-6.8,27.9c-0.1,0.4,0,0.7,0.3,0.9l4.3,3.2c0.3,0.2,0.7,0.3,1,0.1l24.7-14.4c0.4-0.2,0.4-0.5,0.2-0.8
		c-6-8.1-13.7-13.8-23.1-17.2C900.6,208.5,900.4,208.6,900.3,208.9z M932.8,229.9l-1,0.3c-0.1,0-0.1,0.1-0.1,0.2c0,0,0,0,0,0l4.9,15
		c0.1,0.1,0.4,0.2,0.7,0.1h0c0.3-0.1,0.6-0.3,0.5-0.5c0,0,0,0,0,0l-4.9-15C933,229.9,932.9,229.9,932.8,229.9z M839,230.5
		c-2.2,4.2-4.1,9.9-4.5,14.7c0,0.2,0.1,0.3,0.2,0.3l0.3,0.1c0.2,0.1,0.5-0.1,0.5-0.3c0,0,0,0,0-0.1c0.8-5,2.3-9.8,4.6-14.5
		c0.1-0.2,0-0.4-0.2-0.5c0,0,0,0,0,0l-0.2-0.1C839.5,230.1,839.1,230.2,839,230.5z M931.5,246.1c0.6-0.1,1.1-0.6,1-1.2
		c0-0.1,0-0.2,0-0.2l-3.5-11.1c-0.2-0.6-0.8-0.9-1.4-0.7c-0.1,0-0.1,0.1-0.2,0.1l-23,13.4c-0.5,0.3-0.7,1-0.4,1.5
		c0.2,0.4,0.6,0.6,1.1,0.6L931.5,246.1z M844.5,233.1c-0.5-0.3-1.2-0.1-1.5,0.4c0,0.1-0.1,0.1-0.1,0.2l-3.5,11
		c-0.2,0.6,0.1,1.2,0.7,1.4c0.1,0,0.2,0,0.2,0l26.5,2.4c0.6,0,1.1-0.4,1.2-1c0-0.4-0.2-0.8-0.5-1L844.5,233.1z M845.3,284.4
		c-6.6-9.6-10.3-19.2-10.4-31.3c0-0.2-0.1-0.3-0.3-0.3l-0.3-0.1c-0.4-0.1-0.6,0.1-0.6,0.5c0,11.7,3.5,22.2,10.6,31.7
		c0.2,0.2,0.5,0.3,0.7,0.1c0,0,0,0,0.1-0.1l0.2-0.2C845.4,284.7,845.4,284.5,845.3,284.4z M927.3,285.1c7.2-8.9,10.9-20.9,10.7-32
		c0-0.2-0.2-0.3-0.4-0.3c0,0,0,0,0,0l-0.3,0c-0.4,0-0.6,0.2-0.6,0.6c0,11.3-3.4,21.6-10.3,30.7c-0.3,0.4-0.2,0.7,0.2,0.9l0.2,0.1
		C927,285.3,927.2,285.2,927.3,285.1z M870.3,261.5l-1.8-5.2c-0.1-0.4-0.4-0.5-0.7-0.6l-28.4-2.4c-0.5,0-0.7,0.2-0.7,0.6
		c0.2,10.3,3.3,19.4,9.3,27.5c0.2,0.2,0.5,0.3,0.7,0.1c0,0,0,0,0,0l21.3-19C870.4,262.2,870.5,261.9,870.3,261.5z M923.8,281.4
		c5.9-8.2,9-17.5,9.1-27.5c0-0.5-0.2-0.7-0.7-0.6l-28.7,2.5c-0.3,0-0.5,0.2-0.5,0.5c-0.3,1.9-0.9,3.6-1.7,5.2
		c-0.1,0.3-0.1,0.6,0.2,0.8l21.6,19.2C923.2,281.7,923.6,281.7,923.8,281.4C923.8,281.4,923.8,281.4,923.8,281.4z M853.9,286.1
		c-0.6,0.5-0.6,1.5-0.1,2c0.1,0.1,0.1,0.1,0.2,0.2l8.8,6.4c0.6,0.5,1.6,0.3,2-0.3c0.1-0.1,0.1-0.2,0.2-0.3l10.1-23.2
		c0.3-0.7,0-1.6-0.8-1.9c-0.5-0.2-1.1-0.1-1.5,0.2L853.9,286.1z M906.8,294.2c0.3,0.7,1.2,1.1,1.9,0.8c0.1,0,0.2-0.1,0.3-0.2
		l8.9-6.5c0.6-0.5,0.8-1.4,0.3-2c-0.1-0.1-0.1-0.2-0.2-0.2l-19-16.8c-0.6-0.5-1.5-0.5-2,0.1c-0.4,0.4-0.5,1-0.2,1.5L906.8,294.2z
		 M882.4,271.1c-4.4,9.3-8.3,18.1-11.8,26.4c-0.1,0.2,0,0.3,0.2,0.4c0,0,0,0,0,0c10.2,3.4,20.3,3.4,30.2,0c0.2-0.1,0.3-0.3,0.2-0.5
		c0,0,0,0,0,0l-11.6-26.2c-0.2-0.4-0.6-0.7-1-0.7l-5.5,0C882.8,270.7,882.5,270.9,882.4,271.1z M848.9,290.9l13.1,9.5
		c0.1,0.1,0.3,0.1,0.3,0c0,0,0,0,0,0l0.3-0.4c0.2-0.3,0.3-0.6,0.2-0.7c0,0,0,0,0,0l-13.1-9.5c-0.1-0.1-0.4,0.1-0.6,0.4l-0.3,0.4
		C848.7,290.6,848.8,290.8,848.9,290.9L848.9,290.9z M909.8,300.3l13-9.4c0.1-0.1,0.1-0.2,0.1-0.3c0,0,0,0,0,0l-0.2-0.3
		c-0.2-0.3-0.5-0.5-0.6-0.4c0,0,0,0,0,0l-13,9.4c-0.1,0.1,0,0.4,0.2,0.7l0.2,0.3C909.5,300.3,909.7,300.4,909.8,300.3
		C909.8,300.3,909.8,300.3,909.8,300.3z M902.6,301.6c-11.4,3.7-22.3,3.5-33.5,0c-0.1,0-0.2,0-0.3,0.1l-0.1,0.3
		c-0.2,0.4-0.1,0.7,0.3,0.9c11.2,3.8,22.4,3.8,33.9,0c0.3-0.1,0.4-0.4,0.3-0.6l-0.1-0.3C903,301.7,902.8,301.6,902.6,301.6z"/>
	<path d="M168.8,634.3c0.2-0.1,0.4-0.2,0.6-0.2c2.2-0.3,4.3-0.7,6.3-1c1.5-0.3,2.9-1.5,4.1-3.5c0.2-0.4,0.1-0.6-0.3-0.6
		c-5-0.8-11.6-2.3-14.1-7.2c-4.3-8.4-8.6-17.5-13-27.4c-0.1-0.2,0-0.4,0.1-0.5c1.3-1.2,2.7-2.3,4.2-3.4
		c34-25.6,74.2-46.4,115.1-56.7c9.6-2.4,24-5.6,43.4-9.5c13-2.6,24.8-4.4,35.5-5.5c3-0.3,5.9-0.9,8.5-1.7
		c38.4-12.4,75.9-25.7,114-37.1c46.9-14,94.4-22.5,143-22.7c11.2-0.1,23,0.2,35.3,0.7c30.8,1.3,62.1,3.5,93.7,6.5
		c6.2,0.6,12.7,1.5,19.4,2.6c71.8,12.3,143.5,24.5,215.2,36.7c6.7,1.1,13,2.5,19,4c20.3,5.1,40.4,10.3,60.6,15.4
		c0.3,0.1,0.5,0.4,0.4,0.7c0,0,0,0,0,0.1l-8.9,24.4c-0.1,0.4-0.4,0.6-0.8,0.7l-7.8,1c-0.3,0-0.5,0.3-0.5,0.6c0,0,0,0,0,0.1l7.9,30.1
		c0.1,0.4,0.3,0.6,0.7,0.6l18.8,3.3c0.2,0,0.3,0.2,0.3,0.4c0,0,0,0,0,0c-2.5,9.4-4.9,17.3-7.3,23.8c-0.8,2.3-2.6,4.7-5.2,7.3
		c-6.5,6.5-12.7,12.4-18.8,17.8c-0.7,0.6-1.4,1.1-2.2,1.6c-13.5,7.3-26.5,14.3-38.9,21c-0.8,0.4-1.6,0.6-2.5,0.7l-39.2,0.3
		c-0.2,0-0.4-0.2-0.4-0.4c0,0,0,0,0-0.1c0.8-4.6,1.2-8.9,1.2-13c0-8,0-16.5,0.1-25.3c0.1-7.8-0.4-14.2-1.4-19.4
		c-3.1-15.6-10.6-28.8-22.6-39.4c-41.4-36.8-106.4-13.7-116.5,40.5c-0.8,4.4-1.2,11.1-1.2,20c0.1,9.4,0.1,18.5,0.3,27.4
		c0,2.8,0.4,5.8,1.1,9c0.1,0.4-0.2,0.8-0.6,0.9c-0.1,0-0.1,0-0.2,0l-379,0.5c-0.3,0-0.6-0.3-0.6-0.6c0.1-15.6,0.1-31.8,0-48.4
		c-0.1-8.7-2-17.2-5.9-25.6c-10.8-23.4-33.7-38.3-59.6-38.5c-32.4-0.3-59.3,20.9-66.2,52.5c-1.1,5.1-1.6,11.6-1.5,19.5
		c0.1,11.4,0.2,24,0.1,37.9c0,0.3-0.3,0.6-0.6,0.6l0,0l-124.8-2.8c-1.1,0-2.3-0.3-3.3-0.7c-2.7-1.1-5.4-2.1-8.2-3.2
		c-4.4-1.7-7.8-5.5-10.1-9.4c-0.6-1-0.2-2.2,0.7-2.8c0.2-0.1,0.3-0.2,0.5-0.2c3.6-0.9,7.2-1.5,10.9-1.9
		C168.3,634.6,168.5,634.5,168.8,634.3z M534.1,474.2c0.2,0,0.4-0.1,0.6-0.2c0.8-0.3,0.8-0.7,0.1-1.2l-6.2-3.5
		c-0.6-0.3-1.3-0.4-2-0.3c-35.1,7.5-70.3,18.3-104.8,30c-20.7,7-41.4,13.8-61.9,20.5c-1.2,0.4-1.1,0.6,0.1,0.7l20.2,1.6
		c1.1,0.1,2.1-0.1,3.1-0.5c21.9-8.4,42.7-16.3,62.6-23.6c12.2-4.5,23.7-8.2,34.6-11.2C499.8,481.4,517.7,477.3,534.1,474.2z
		 M462.9,508.4c1.8-1.2,3.9-2.1,6.1-2.8c10.1-3.1,19.8-4.8,29.3-5.2c6-0.3,6.2,9.6,5.8,13.7c-0.7,6.5-10.4,10.8-16.2,12.5
		c-0.2,0.1-0.3,0.3-0.3,0.5c0,0.1,0,0.1,0.1,0.2l6.5,7.2c0.4,0.5,1.1,0.7,1.7,0.7c24.8-1.3,50.6-3.4,75.9-6.5
		c29.7-3.6,58.9-7.4,87.7-11.2c0.3,0,0.4-0.2,0.5-0.5l6.5-40.9c0-0.1,0-0.2-0.2-0.2c-23.3-1.8-46.9-2.3-71-1.4
		c-32.5,1.1-65.4,7.6-97.5,16c-14,3.7-29.1,8.9-45.3,15.7c-15.8,6.6-30,13.2-42.8,19.8c-0.2,0.1-0.2,0.3-0.1,0.5
		c0.1,0.1,0.1,0.2,0.2,0.2l65.1,10.4c0.7,0.1,0.8-0.1,0.3-0.6c-5.3-6.3-11.4-14.4-13.9-22.4C460.7,511.4,461.1,509.5,462.9,508.4z
		 M728.9,508.1c0.2,0,0.3-0.2,0.3-0.4c0-0.1,0-0.1-0.1-0.1l-18.8-26.1c-0.1-0.1-0.1-0.1-0.2-0.1l-38.2-5.2c-0.2,0-0.3,0.1-0.4,0.3
		l-6,39.8c0,0.2,0.1,0.3,0.3,0.4c0,0,0.1,0,0.1,0L728.9,508.1z M1038.2,547.4c0.1,0,0.3-0.1,0.3-0.2l5.8-18.4c0.1-0.2,0-0.3-0.2-0.4
		c0,0-0.1,0-0.1,0l-32.3,3.6c-0.1,0-0.2,0.1-0.2,0.2l-7.6,14.9c-0.1,0.1,0,0.3,0.1,0.4c0,0,0.1,0,0.1,0L1038.2,547.4z M208.8,575.3
		c4.5-0.5,9.3-0.9,14.5-1.1c1.7-0.1,3.7-0.7,6.1-1.9c17.4-8.9,34.7-17.7,51.9-26.5c1-0.5,0.9-0.7-0.2-0.7c-5.9,0.3-12,0.6-18.3,0.9
		c-4.8,0.2-9,1.7-13.5,3.3c-8.6,3-17.5,6.6-26.8,10.6c-6.3,2.7-10,8.5-14.2,14.2C207.5,575.1,207.7,575.5,208.8,575.3z M161.2,642.5
		c0.1-0.4-0.5-0.8-1.3-1c-0.8-0.2-1.5,0-1.6,0.4c-0.1,0.4,0.5,0.8,1.3,1c0,0,0,0,0,0C160.4,643.1,161.1,642.9,161.2,642.5
		C161.2,642.5,161.2,642.5,161.2,642.5z"/>
	<path d="M433.6,612.5c0,35.7-29,64.7-64.7,64.7c0,0,0,0,0,0c-35.7,0-64.7-29-64.7-64.7c0,0,0,0,0,0c0-35.7,29-64.7,64.7-64.7
		S433.6,576.8,433.6,612.5L433.6,612.5z M420.5,612.5c0-28.5-23.1-51.6-51.6-51.6s-51.6,23.1-51.6,51.6c0,28.5,23.1,51.6,51.6,51.6
		c0,0,0,0,0,0C397.4,664.1,420.5,641,420.5,612.5L420.5,612.5z"/>
	<path d="M950.3,612.5c0,35.7-29,64.7-64.7,64.7c0,0,0,0,0,0c-35.7,0-64.7-29-64.7-64.7c0,0,0,0,0,0c0-35.7,29-64.7,64.7-64.7
		S950.3,576.7,950.3,612.5z M937.2,612.5c0-28.5-23.1-51.6-51.6-51.6l0,0c-28.5,0-51.6,23.1-51.6,51.6l0,0
		c0,28.5,23.1,51.6,51.6,51.6S937.2,641,937.2,612.5z"/>
	<path d="M377.7,626c-1.8,0.1-3.6,0.4-5.3,0.9c-2.3,0.6-2.9,2.5-3.6,4.4c-2.5,6.4-4.6,12.4-6.3,18c-0.5,1.7-0.6,3.7,0.6,5.2
		c2.2,2.7,4.3,5,6.4,7c0.7,0.6,0.5,1-0.4,1c-10.2,0-19.9-3.2-29-9.7c-0.2-0.2-0.3-0.5-0.1-0.7c0.1-0.1,0.2-0.2,0.3-0.2
		c3.1-0.7,6.1-1.6,9.1-2.7c1.6-0.6,2.8-1.8,3.5-3.6c2.3-5.8,4.4-12.4,6.4-19.6c0.3-0.9,0.2-1.8-0.2-2.8c-1.3-3.2-3.1-5.2-6.7-5.5
		c-7.1-0.6-13.6-1-19.5-1c-1.8,0-3.3,0.7-4.5,2.2c-2.1,2.6-4,5.4-5.6,8.3c-0.1,0.2-0.4,0.3-0.7,0.2c-0.1-0.1-0.2-0.2-0.2-0.3
		c-2.9-10.8-2.7-21.1,0.7-30.9c0.4-1.2,0.9-1.2,1.4-0.1c1.3,3,4.6,10.4,8.4,10.8c6.6,0.7,13.1,0.5,20.1,0.2c1.9-0.1,3.3-0.6,4.3-1.6
		c2.4-2.3,3.1-4.4,2.4-7.5c-2.1-8.2-4-14.8-5.8-19.8c-0.4-1.2-1.3-2.1-2.6-2.7c-3.2-1.3-6.3-2.4-9.2-3.2c-0.2-0.1-0.4-0.3-0.3-0.5
		c0-0.1,0.1-0.2,0.2-0.3c8.7-5.7,18-8.7,27.9-8.8c0.2,0,0.4,0.2,0.5,0.4c0,0.1,0,0.2-0.1,0.3c-2.3,2.9-5.5,6.8-6.8,10.4
		c-0.1,0.3-0.1,0.7,0,1c1.8,5.6,4.1,12.1,7,19.7c0.8,2,1.8,3.4,3,4.2c2.3,1.4,4.9,1.9,7.3,0.3c6.3-4.2,12-8.3,17.1-12.5
		c1-0.8,1.4-1.8,1.5-3.1c0.1-4,0.1-7.5,0-10.6c0-0.2,0.1-0.3,0.3-0.4c0.1,0,0.2,0,0.2,0.1c9.1,6.9,15.2,15.8,18.4,26.7
		c0.1,0.3-0.1,0.6-0.3,0.6c-0.1,0-0.3,0-0.4,0c-3.1-1.6-11.1-5.6-14.1-3.7c-4.9,3-10,6.8-15.3,11.3c-3.4,2.9-4.4,7.7-0.8,10.8
		c5.7,4.9,11.1,9.2,16.1,12.9c3,2.2,10.2-1.6,13-3c1-0.5,1.3-0.2,0.9,0.8c-3.4,9.7-9.3,17.6-17.5,23.8c-0.2,0.1-0.4,0.1-0.5-0.1
		c-0.1-0.1-0.1-0.2-0.1-0.3c0.2-3.3,0.2-6.4-0.2-9.4c-0.1-1.3-0.8-2.5-2.1-3.5c-5.9-4.8-11.5-9-16.7-12.8
		C379.1,626.2,378.4,626,377.7,626z"/>
	<path d="M876,625.7c0.9-3.4-3-7.7-6.2-8c-7.9-0.7-14.7-1.1-20.4-1.1c-1.6,0-2.9,0.6-3.9,1.8c-2.2,2.5-4.1,5.3-5.8,8.3
		c-0.1,0.2-0.3,0.5-0.6,0.6c-0.2,0.1-0.4,0.1-0.5-0.1c0,0,0-0.1,0-0.1c-3-11.1-2.7-21.6,0.8-31.4c0.3-0.8,0.6-0.8,1,0
		c1.5,3.2,3.6,7.6,6.1,10c0.7,0.7,1.6,1,2.6,1.2c7.4,0.7,14.9,0.6,22.4-0.1c0.5-0.1,0.9-0.2,1.2-0.6c1.9-1.8,4-4.3,3.3-7.1
		c-1.8-7.9-3.8-14.8-5.8-20.5c-0.5-1.5-1.6-2.6-3.1-3.3c-2.9-1.3-5.8-2.3-8.8-3c-0.3-0.1-0.4-0.3-0.4-0.6c0-0.1,0.1-0.2,0.2-0.3
		c8.4-5.6,17.7-8.5,27.7-8.8c0.3,0,0.6,0.2,0.6,0.5c0,0.1,0,0.3-0.1,0.4c-2.3,2.7-4.3,5.6-6.2,8.8c-0.6,1.1-0.7,2.3-0.3,3.7
		c2.1,6.3,4.4,12.7,7,19c1.6,4,6.3,6.5,10.2,3.9c6.7-4.4,12.3-8.6,17-12.4c1.7-1.4,1.4-2.8,1.5-4.8c0.1-3,0.1-6,0-9
		c0-0.2,0.1-0.3,0.3-0.3c0.1,0,0.2,0,0.2,0.1c9.2,7,15.3,16,18.4,26.9c0.1,0.2-0.1,0.5-0.3,0.5c-0.1,0-0.2,0-0.3,0
		c-3.3-1.6-11.3-5.7-14.7-3.5c-5.2,3.4-10.2,7.2-15.2,11.4c-1.3,1.1-2.1,2.4-2.4,3.8c-0.3,1.8-0.5,4.6,1,6c5.2,4.6,10.6,9,16.2,13.1
		c1.8,1.4,3.7,1.7,5.7,1c3.1-1.2,5.9-2.3,8.4-3.6c0.8-0.4,1.1-0.2,0.8,0.7c-3.4,9.7-9.2,17.7-17.4,24.1c-0.2,0.2-0.5,0.1-0.7-0.1
		c-0.1-0.1-0.1-0.2-0.1-0.4c0.3-3.6,0.8-10.3-2.2-12.7c-5.3-4.2-10.5-8.2-15.7-12.1c-3.1-2.3-10-1.3-11.5,2.6
		c-2.6,6.8-6.2,14.8-7.1,21.8c-0.1,1,0.2,1.9,1,2.8c2.1,2.4,4.1,4.7,6.2,6.8c0.7,0.8,0.6,1.1-0.5,1.1c-10.6-0.3-20.2-3.5-28.8-9.8
		c-0.2-0.1-0.2-0.4-0.1-0.6c0.1-0.1,0.2-0.2,0.3-0.2c3.4-0.8,6.6-1.7,9.5-2.7c1.3-0.5,2.3-1.4,2.8-2.6
		C871.7,640.3,874,633.4,876,625.7z"/>
	<path d="M1082.7,950.2l11,23.2c0.2,0.4,0.5,0.6,0.9,0.7c8.7,1,7.3,12,5.7,18.3c-2.7,10.5-6.3,21.1-10.8,31.5
		c-0.7,1.6-1,3.1-1.1,4.7c-0.1,3.7-0.6,7.3-1.6,10.8c-1.1,3.9-6.3,4.7-9.6,5.5c-1.4,0.3-2.7,0.9-4,1.8c-5.3,3.5-11.4,6.7-17.5,7.8
		c-30,5.3-59.6,10.6-88.9,15.7c-0.9,0.2-1.4-0.2-1.4-1.2c0.1-16.4,0.2-33.3,0.1-50.6c-0.1-31.7-17.6-59.1-46.3-71.7
		c-23-10.1-51.1-8.2-72.3,5.2c-23.1,14.7-36.3,38.9-36.4,66.2c0,16.6,0,32.2,0.1,46.8c0,1.9,0.2,3.9,0.4,6c0,0.4-0.1,0.6-0.6,0.6
		l-422,0c-0.2,0-0.4-0.2-0.4-0.4c0,0,0,0,0,0c0.2-3.2,0.4-6.5,0.4-9.8c0.1-16.8,0.1-31.8,0-45c-0.2-30-18.8-58-46.6-69.7
		c-46.1-19.5-98,7.9-107.1,57.2c-0.9,4.8-1.3,11.3-1.3,19.5c0.1,13.2,0.1,27.1,0,42c0,0.4-0.2,0.5-0.5,0.5
		c-17.7-0.2-35.6-0.5-53.8-1.1c-12.4-0.4-25-2-37.5-3.2c-4.2-0.4-8.1-1.2-11.8-2.4c-6.8-2.2-9.2-6.8-7.1-14c0.7-2.5,2.5-4.2,5.3-5.3
		c0.9-0.3,1.2-0.9,1.1-1.8c-1.4-9.6-2.6-18.6-3.5-27.1c-0.2-1.5-0.2-3-0.1-4.7c0-0.3-0.2-0.6-0.5-0.7c-5.6-2.1-6.1-7.9-3.1-12.6
		c4.7-7.3,12.2-13.3,19.1-18.5c33.7-25.2,73-45.2,113.7-55.4c25.9-6.5,53.6-10.6,80.8-13.9c41.9-5.1,84.3-8.9,127.3-11.4
		c2.8-0.2,5.1-0.5,8,0.5c1.5,0.5,2.9,1,4.3,1.3c0.3,0.1,0.6,0,0.9-0.1c27.5-15.6,54.4-30,80.8-43.2c20-10,39.2-18.6,57.7-25.9
		c26-10.2,52.3-12.3,80.3-11.8c28.7,0.5,58.1,4,88,10.5c60.7,13.2,121.9,31.8,178.8,53c1.4,0.5,2.7,0.8,4.1,1
		c23.1,2.3,46.5,4.6,69.9,6.8c1.1,0.1,2.2-0.1,3.1-0.5c4.3-2,8.9-3.8,13.7-5.4c1.7-0.6,3.8-0.5,5.6-0.1c5.2,1.3,10.7,2.8,16.4,4.8
		c0.4,0.1,0.5,0.4,0.3,0.7l-5.8,12.8c-0.2,0.4-0.1,0.8,0.1,1.1c10.2,14.7,17.6,30.9,22.2,48.5c0.1,0.2-0.1,0.5-0.3,0.6c0,0,0,0,0,0
		l-8.1,1.2C1082.7,949.5,1082.5,949.8,1082.7,950.2z M501.6,898c4.1,0.5,7.1,0.5,9,0.1c1.8-0.4,4.6-1.7,8.5-4
		c14.2-8.5,28.7-17.5,43.6-24.5c23.6-11.1,46.3-22,68.1-32.6c1-0.5,2-1.2,2.8-2c0.9-0.8,1-1.8,0.4-2.8c-1.7-2.8-4-5-6.9-6.7
		c-0.4-0.2-0.8-0.3-1.2-0.1c-21,7.1-40.8,16.2-61.3,26.3c-28,13.8-55.4,28.3-82.3,43.6c-0.9,0.5-0.9,0.8,0.2,0.9
		C488.8,896.7,495.2,897.3,501.6,898z M600.9,895.1c-0.8,5-10.1,6.1-13.9,6.5c-0.4,0-0.6,0.3-0.7,0.7l-0.2,6.7
		c0,0.3,0.3,0.6,0.6,0.6c0,0,0,0,0.1,0l174.1-16.5c0.5,0,0.8-0.3,0.9-0.8l13.3-47.7c0.1-0.4,0-0.6-0.4-0.7
		c-25.5-3.7-50.2-6.2-74-7.4c-8.4-0.4-17.2-0.9-25.6,0.9c-23.4,4.8-47.1,12.5-67.6,24.5c-7.7,4.5-14.9,8.5-21.5,12.1
		c-0.2,0.1-0.2,0.3-0.2,0.5c0,0.1,0.1,0.1,0.2,0.2c4.2,1.7,13,5.8,14.6,10.2C601.5,887.7,601.6,891.1,600.9,895.1z M781,845
		c-0.2,0-0.3,0.1-0.4,0.3l-13,46.7c-0.1,0.2,0.1,0.4,0.2,0.4c0,0,0.1,0,0.1,0c14.5-1.4,29.3-2.8,44.6-4.2c3.1-0.3,6.1-1.4,9-3.3
		c5.7-3.7,25.7-18.5,14.6-25.2c-3.6-2.2-7.4-3.9-11.2-5.1C811.2,850.3,796.6,847.2,781,845z M1062.8,940.9
		c3.3-2.3,0.1-12.6-7.2-23.1l0,0c-7.3-10.5-15.8-17.1-19.1-14.8s-0.1,12.6,7.2,23.1l0,0C1051,936.5,1059.5,943.2,1062.8,940.9z
		 M161.9,972.5c-0.4,0.4-0.9,0.7-1.4,1.1c-0.9,0.7-0.8,1.1,0.4,1c11.1-0.5,21.8-3.4,32.1-8.9c17.1-9,32.1-20.2,49.1-32.6
		c2.1-1.5,4.8-4.4,2.5-6.9c-0.7-0.8-1.5-1-2.6-0.7c-8,2.5-15.9,5.3-23.7,8.4c-4.7,1.8-9.4,4.3-14.3,7.5
		C189.3,950.9,175.3,961.2,161.9,972.5z M156.1,1004.2c0.2,10.6,2.5,20.6,4,31c0.3,1.9,0.7,1.9,1.3,0.1c2.2-7.4,4.3-15.1,6.3-23.2
		c0.9-3.6,2.9-10.7-1.7-12.2C162.8,998.7,155.9,999.5,156.1,1004.2z"/>
	<path d="M962.1,1021.5c0,41.5-33.7,75.2-75.2,75.2c-41.5,0-75.2-33.7-75.2-75.2s33.7-75.2,75.2-75.2h0
		C928.4,946.3,962.1,980,962.1,1021.5z M862.4,975.5c5,2.7,10,5.5,14.9,8.3c1.7,1,2.8,2.3,3.2,3.9c1.3,4.5,2.5,9,3.7,13.5
		c0.1,0.4,0.4,0.6,0.8,0.6h4c0.4,0,0.7-0.2,0.8-0.6c1.2-4.3,2.3-8.6,3.5-13c0.7-2.6,2.3-3.8,4.6-5.1c4.7-2.6,9.4-5.2,14-7.8
		c0.5-0.3,0.5-0.5,0-0.8c-16.5-8.2-33.1-8.1-49.7,0c-0.4,0.2-0.4,0.4-0.1,0.7C862.1,975.3,862.2,975.4,862.4,975.5z M876.2,1004.1
		c-1.2-3.4-2-6.9-3.3-10.2c-0.5-1.2-1.3-2.1-2.4-2.7c-5.9-3.4-11.5-6.8-17-10.3c-0.4-0.3-0.8-0.2-1.1,0.1l-6,6
		c-0.1,0.1-0.2,0.4-0.1,0.5l10.6,18c0.6,1,1.5,1.7,2.5,2l10,3.2c0.4,0.1,0.7,0,0.9-0.3c1.5-2.1,3.3-3.9,5.5-5.4
		C876.2,1004.9,876.4,1004.6,876.2,1004.1z M927.6,988.1c0.1-0.2,0.1-0.5-0.1-0.8c-1.8-2.2-3.9-4.3-6.3-6.4
		c-0.2-0.2-0.5-0.2-0.7-0.1c-5.6,3.4-11.3,6.9-17.3,10.4c-1.4,0.8-2.3,2.1-2.8,3.8c-0.9,3.1-1.8,6.1-2.7,8.9c-0.1,0.4,0,0.8,0.3,1
		c1.9,1.5,3.7,3.2,5.2,5.2c0.3,0.4,0.7,0.5,1.2,0.4c2.9-1,5.9-1.8,8.9-2.6c1.7-0.5,3-1.3,3.7-2.5
		C920.2,1000,923.8,994.1,927.6,988.1z M840.1,996.5c-8.2,15.4-8,35.1-0.1,50c0.1,0.2,0.4,0.3,0.5,0.2c0.1,0,0.1-0.1,0.2-0.2
		c3.3-5.9,6.3-11.3,9-16c0.7-1.3,1.9-2.1,3.4-2.5c4.4-1.2,8.9-2.4,13.5-3.7c0.4-0.1,0.6-0.4,0.6-0.8l0-4.1c0-0.4-0.2-0.6-0.5-0.7
		c-4.4-1.2-8.9-2.5-13.5-3.7c-1.6-0.4-2.8-1.4-3.6-2.8c-3.1-5.4-6-10.7-8.8-15.8c-0.1-0.2-0.3-0.2-0.5-0.1
		C840.2,996.4,840.1,996.5,840.1,996.5z M927,1035.4c2,3.8,4.1,7.4,6.1,10.8c0.1,0.2,0.4,0.3,0.7,0.2c0.1-0.1,0.2-0.1,0.2-0.2
		c7.9-16.2,8-32.5,0.2-48.9c-0.4-0.8-0.8-0.9-1.3-0.1c-3,5.3-5.8,10.3-8.5,15c-0.8,1.5-2.2,2.5-3.9,3c-4.7,1.3-9.2,2.5-13.4,3.6
		c-0.3,0.1-0.5,0.3-0.5,0.7l0,4c0,0.4,0.2,0.6,0.6,0.7c4.5,1.2,9.1,2.4,13.7,3.8C924,1028.9,925.5,1032.6,927,1035.4z M853.3,1062.1
		l17.3-10.2c1.3-0.8,2.3-2,2.8-3.5l2.9-9.4c0.1-0.3,0-0.7-0.3-0.9c-2.2-1.6-4.1-3.5-5.7-5.7c-0.1-0.2-0.4-0.3-0.6-0.2
		c-2.9,1-5.9,1.9-8.9,2.8c-1.9,0.6-3.4,1.7-4.3,3.3c-3.2,5.5-6.5,11.2-9.9,16.9c-0.2,0.3-0.2,0.6,0.1,0.9c1.9,2.2,3.9,4.2,6,5.9
		C852.8,1062.2,853,1062.2,853.3,1062.1z M927.1,1056.4c0.4-0.5,0.5-1.1,0.2-1.7l-11-18.3c-0.2-0.3-0.4-0.5-0.8-0.6l-10.7-3.5
		c-0.5-0.2-1,0-1.4,0.3l-5.3,5.3c-0.4,0.4-0.5,0.9-0.3,1.4l3.4,10.7c0.1,0.3,0.3,0.6,0.6,0.8l18.2,11.1c0.5,0.3,1.2,0.2,1.7-0.2
		L927.1,1056.4z M880.4,1055.6c-0.5,1.6-1.5,2.8-2.9,3.6c-5,2.8-10.1,5.7-15.4,8.6c-0.2,0.1-0.3,0.4-0.2,0.6c0,0.1,0.1,0.1,0.2,0.2
		c16.1,8.1,32.7,8.1,49.5,0.2c0.7-0.3,0.7-0.7,0-1.1c-5-2.7-9.8-5.5-14.7-8.2c-1.8-1-3-2.4-3.5-4.1c-1.3-4.2-2.5-8.7-3.7-13.4
		c-0.1-0.5-0.4-0.7-0.9-0.7h-3.6c-0.5,0-0.8,0.3-0.9,0.7C883,1046.8,881.7,1051.4,880.4,1055.6z"/>
	<path d="M381.9,1025.1c0,39.5-32.1,71.6-71.6,71.6s-71.6-32.1-71.6-71.6c0-39.5,32.1-71.6,71.6-71.6S381.9,985.6,381.9,1025.1z
		 M316.5,992.9c0.6-2.3,2.6-3.5,4.5-4.5c4.5-2.5,8.8-4.9,12.9-7.3c0.2-0.1,0.3-0.4,0.2-0.7c0-0.1-0.1-0.2-0.2-0.2
		c-15.8-7.6-31.4-7.6-47,0c-0.2,0.1-0.3,0.4-0.2,0.6c0,0.1,0.1,0.2,0.2,0.2c4.4,2.5,9.1,5.1,14.2,8c1.7,1,2.8,2.2,3.2,3.8
		c1.1,4.1,2.3,8.3,3.4,12.6c0.1,0.4,0.5,0.7,1,0.7h3.5c0.5,0,0.8-0.2,0.9-0.7C314.2,1001.4,315.4,997.1,316.5,992.9z M278.5,986.5
		c-0.4-0.2-0.8-0.2-1.1,0.1L272,992c-0.3,0.3-0.3,0.7-0.1,1.1l10.6,17.9c0.1,0.2,0.3,0.3,0.5,0.4l10.5,3.5c0.3,0.1,0.7,0,0.9-0.2
		l5.5-5.4c0.2-0.2,0.3-0.6,0.2-0.9l-3.4-10.6c-0.1-0.2-0.2-0.4-0.4-0.5L278.5,986.5z M348.9,993.4c0.2-0.4,0.2-0.9-0.1-1.2l-5.5-5.5
		c-0.3-0.3-0.7-0.4-1.1-0.1c-5.3,3.2-10.8,6.5-16.3,9.7c-1.8,1-2.3,2.6-2.9,4.5c-0.8,2.7-1.6,5.3-2.4,7.8c-0.1,0.4,0,0.7,0.3,1
		c2,1.4,3.6,3.1,4.9,5c0.2,0.3,0.6,0.4,0.9,0.3l9.5-2.9c1.1-0.3,2.1-1.1,2.7-2.1L348.9,993.4z M266.4,1049
		c2.9-5.3,5.7-10.4,8.5-15.2c0.7-1.2,1.7-2,2.8-2.3c4.3-1.3,8.8-2.5,13.3-3.7c0.3-0.1,0.6-0.4,0.6-0.8l0-3.7c0-0.4-0.3-0.8-0.7-0.9
		c-3.5-0.9-7-1.9-10.5-2.9c-2.4-0.7-4.2-0.9-5.6-3.2c-3-5.1-5.8-10.1-8.4-15.1c-0.1-0.2-0.4-0.3-0.6-0.2c-0.1,0-0.1,0.1-0.2,0.2
		c-7.6,15.7-7.8,31.3-0.4,47c0.2,0.4,0.5,0.6,0.8,0.8C266.2,1049.1,266.3,1049.1,266.4,1049z M346.2,1016.1c-0.9,1.6-2.1,2.5-3.9,3
		c-4.2,1.2-8.3,2.3-12.5,3.4c-0.5,0.1-0.8,0.4-0.8,1v3.4c0,0.5,0.2,0.8,0.7,1c4,1,8.1,2.2,12.5,3.4c1.7,0.5,2.9,1.4,3.7,2.8
		c2.6,4.5,5.3,9.4,8.3,14.6c0.1,0.2,0.4,0.3,0.7,0.2c0.1,0,0.2-0.1,0.2-0.2c7.5-15.5,7.5-31.1,0.1-46.8c-0.1-0.2-0.4-0.3-0.6-0.2
		c-0.1,0-0.2,0.1-0.2,0.2C351.6,1006.6,348.9,1011.4,346.2,1016.1z M278.3,1063.8c5.1-3.1,10.4-6.3,16.1-9.6c1.6-0.9,2.6-2.1,3-3.6
		c0.9-2.9,1.8-5.9,2.8-8.9c0.1-0.4,0-0.8-0.4-1c-2-1.4-3.7-3.1-5-5c-0.3-0.4-0.6-0.5-1-0.4c-3,1-6,1.9-9,2.8
		c-1.5,0.4-2.6,1.5-3.4,2.8c-3.3,5.7-6.5,11.2-9.6,16.3c-0.2,0.3-0.2,0.6,0.1,0.9l5.7,5.6C277.8,1063.9,278.1,1064,278.3,1063.8z
		 M348.9,1057l-10.1-16.7c-0.5-0.9-1.4-1.6-2.4-1.9l-9.6-3c-0.4-0.1-0.7,0-0.9,0.3c-1.4,2-3,3.6-5,5c-0.3,0.2-0.5,0.6-0.3,1
		c0.9,2.7,1.8,5.5,2.6,8.4c0.5,1.8,1.4,3.1,2.9,3.9c5.3,3.1,10.7,6.4,16.1,9.7c0.4,0.2,0.9,0.2,1.3-0.1l5.4-5.4
		C349.1,1057.8,349.2,1057.4,348.9,1057z M286.7,1069.8c15.1,7.8,32.4,7.8,47.4,0c0.2-0.1,0.2-0.3,0.1-0.4c0-0.1-0.1-0.1-0.1-0.1
		c-4.9-2.7-9.7-5.4-14.5-8.1c-1.6-0.9-2.6-2.1-3.1-3.7c-1.3-4.5-2.5-8.7-3.6-12.8c-0.1-0.4-0.5-0.7-0.9-0.7h-3.2
		c-0.5,0-1,0.4-1.1,0.9c-1.1,4.2-2.3,8.5-3.7,12.9c-0.4,1.4-1.1,2.3-2.1,2.9c-5.1,2.9-10.2,5.8-15.3,8.6c-0.2,0.1-0.2,0.3-0.1,0.5
		C286.6,1069.7,286.6,1069.7,286.7,1069.8z"/>
	<path d="M1067.6,1328c-1.4,0.2-1.5,0.5-0.1,1.1c1.3,0.5,2.1,1.4,2.4,2.6c1.6,5.8,4.3,13.3,3.6,19.3c0,0.4,0.1,0.6,0.5,0.7
		c4.3,0.8,10.1,3.1,9.9,8.1c-0.5,9.5-1.7,20.9-3.7,34.2c-0.7,4.9-1.6,8.7-2.7,11.4c-3.7,9.2-7.7,19.2-12.3,30
		c-0.2,0.6-0.7,1-1.2,1.3c-20.4,10-38.8,18.6-55.3,25.8c-3,1.3-6,2.5-9,3.7c-0.2,0.1-0.4,0-0.5-0.2c0,0,0-0.1,0-0.1
		c-0.1-14.4-0.1-28.1,0.1-41.1c0.1-8.3-0.3-14.9-1.2-19.8c-4.1-22.4-15.8-39.9-35.1-52.4c-16.7-10.8-38.2-14.7-57.9-10.1
		c-31.4,7.3-54.8,32.4-59.7,64.3c-0.7,4.5-1,10.9-0.9,19.5c0.1,14.2,0.1,27.9,0,41.2c0,0.2-0.2,0.3-0.4,0.3l-411-1.9
		c-0.3,0-0.5-0.2-0.5-0.5c0.2-14.8,0.3-29.8,0.2-44.9c0-9-0.5-15.7-1.5-20.1c-6.1-27.9-28.9-48.7-57.3-52.4c-2.9-0.4-6.9-0.6-12-0.6
		c-20.4,0-38.3,7.1-52,22.2c-11.7,12.9-17.5,28.4-17.4,46.5c0,14,0.1,28.4,0.1,43c0,3.3,0.5,6.6,1,9.9c0,0.3-0.1,0.5-0.4,0.5
		c0,0,0,0-0.1,0c-28.5,1.2-57.3,1.8-85.7-0.2c-17.4-1.2-34-6.3-50.4-13.7c-6-2.7-11.8-5.6-16.6-9.6c-5.5-4.6,1.7-9.3,4.6-12.1
		c0.5-0.5,0.6-1.3,0.2-2c-2.5-4-6.2-8.8-6.8-13.4c-1.4-10.8,1.8-20.1,9.6-28c6.5-6.6,14.1-12.1,22.9-16.6
		c17.2-8.9,36.4-17.4,57.6-25.7c5.9-2.3,12-4.4,18.5-6.3c30-8.8,61.1-16.8,93-22.1c15.6-2.6,30.1-3.8,43.5-3.7c0.5,0,1-0.1,1.5-0.3
		c47-21.2,95.1-42.9,144.3-65.3c4.1-1.9,7.9-3.3,11.4-4.2c5.4-1.4,10.7-3.3,16.2-4.4c16-3.4,33.1-5.5,51.3-6.2
		c21.3-0.8,43-0.4,65.1,1.2c27.2,2,53.3,5,78.2,9c6.2,1,12.6,2.3,19.3,3.8c52.7,11.8,106.6,24,161.8,36.5c6.5,1.5,12.7,2.6,18.5,3.3
		c18.3,2.3,36.7,4.1,55.1,5.6c9.5,0.7,19.4,1.3,28.7-0.1c8.3-1.3,15.8-3.1,22.6-5.5c5.3-1.9,7.3,2.8,8.6,6.8c1,3.2,0.2,5.8-2.4,7.8
		c-2.6,2.1-5.5,3.9-8.5,5.5c-0.4,0.2-0.5,0.5-0.3,0.9c2.4,4.6,5.7,6.7,10,6.3c1.8-0.1,3.6,0.8,4.2,2.5c0.9,2.4,1.7,4.9,2.4,7.5
		c0.1,0.5-0.1,0.9-0.6,1.1c-0.1,0-0.2,0-0.3,0C1069.6,1327.9,1068.6,1327.9,1067.6,1328z M387,1318c-0.2,0.1-0.2,0.2,0,0.4
		c0.2,0.1,0.3,0.2,0.5,0.2c6.1,0,12.8-0.4,20.1-1.1c8.9-0.9,18.8-4,29.5-9.3c34.4-16.8,69.8-31.7,105.3-47c0.3-0.1,0.4-0.5,0.3-0.8
		c0,0,0-0.1-0.1-0.1l-6.4-9.2c-0.1-0.2-0.4-0.3-0.6-0.2L387,1318z M520.4,1297.2c-0.1,4.7-0.4,9.5-1.1,14.2
		c-0.2,1.3-0.7,2.5-1.6,3.5c-0.2,0.2-0.5,0.4-0.8,0.5c-2,0.4-3.4,0.7-4.2,0.8c-10.2,1-19.8,1.8-29,2.4c-0.5,0-0.8,0.3-0.7,0.8
		l0.2,6.7c0,0.5,0.3,0.7,0.8,0.7c67.4-5.3,134.8-10.9,201.9-16.9c0.6-0.1,0.8-0.4,0.7-1l-14.8-51.3c-0.1-0.3-0.4-0.5-0.7-0.6
		c-26.5-2.1-53.1-2.3-79.5,2.8c-31,6.1-60.3,16-87.8,30c-0.6,0.3-0.6,0.5,0.1,0.6c4.6,0.6,13.5,2.3,16.1,5.5
		C520.2,1296.2,520.4,1296.7,520.4,1297.2z M827.2,1290.2c0.5-0.7,0.5-1.6-0.2-2.2c0,0,0,0-0.1-0.1c-1.4-1-3-1.8-5-2.5
		c-18.6-6.1-38.5-11.3-59.5-15.6c-27.4-5.6-55-9.7-82.8-12.3c-0.3,0-0.5,0.2-0.6,0.5c0,0.1,0,0.1,0,0.2l13.6,50.5
		c0,0.2,0.2,0.2,0.4,0.2c41.7-5.7,84.4-10.3,126.3-15.2C822.4,1293.3,825.3,1292.5,827.2,1290.2z M1053.6,1326.8l13.8-1.4
		c0.6-0.1,0.9-0.4,0.7-1l-1.3-3.8c-0.2-0.6-0.8-1.1-1.5-1c-7.6,0.6-11-4.3-14.2-10.3c-0.2-0.3-0.4-0.5-0.8-0.4l-29.2,1.1
		c-1.2,0-1.5,0.6-1,1.6c2.7,5.8,6.2,12,10.6,18.7c1.1,1.7,2.6,3.1,4.3,4.1c8.3,4.9,17,9.4,25.5,14c1.9,1,3.4,1.5,4.7,1.6
		c1.9,0,3.8-0.1,5.8-0.5c0.3-0.1,0.4-0.3,0.4-0.6c0,0,0,0,0,0l-4-16.4c-0.2-0.9-1-1.6-2-1.7l-9.7-1c-0.6-0.1-1.1-0.3-1.5-0.8l-1-1.2
		C1052.8,1327.2,1052.9,1326.9,1053.6,1326.8z M189.8,1375.8c-0.2,0.1-0.2,0.4-0.1,0.5c0.1,0.1,0.1,0.1,0.2,0.1
		c0.5,0.1,1.1,0.1,1.6-0.1c4.6-1,9.1-2.2,13.7-3.6c11.8-3.5,23.6-7.4,35.5-11.5c8.5-2.9,17-8.1,25.6-11.6c6.1-2.4,12.5-5,19.1-7.8
		c2.4-1,2.3-1.4-0.3-1.2c-8.8,0.6-17.6,0.9-26.4,1.6c-2.8,0.2-5.9,0.9-9.3,1.9c-4.6,1.4-9.2,2.6-13.6,4.3c-0.6,0.2-1.2,0.5-1.7,0.9
		c-12.2,7.8-25.1,15.4-38.6,22.7C193.5,1373.1,191.6,1374.4,189.8,1375.8z"/>
	<path d="M989,1420.1c0,39.3-31.9,71.2-71.2,71.2h0c-39.3,0-71.2-31.9-71.2-71.2l0,0c0-39.3,31.9-71.2,71.2-71.2
		S989,1380.7,989,1420.1z M974.6,1420.1c0-31.4-25.4-56.8-56.8-56.8s-56.8,25.4-56.8,56.8c0,31.4,25.4,56.8,56.8,56.8c0,0,0,0,0,0
		C949.1,1476.9,974.6,1451.5,974.6,1420.1L974.6,1420.1z"/>
	<path d="M429.5,1423.4c0,37.5-30.4,67.9-67.9,67.9s-67.9-30.4-67.9-67.9c0-37.5,30.4-67.9,67.9-67.9c0,0,0,0,0,0
		C399.1,1355.5,429.5,1385.9,429.5,1423.4L429.5,1423.4z M415.7,1423.4c0-29.9-24.2-54.2-54.1-54.2c0,0,0,0,0,0
		c-29.9,0-54.1,24.2-54.1,54.2l0,0c0,29.9,24.2,54.2,54.1,54.2c0,0,0,0,0,0C391.5,1477.6,415.7,1453.3,415.7,1423.4L415.7,1423.4z"
		/>
	<path d="M897.8,1468.9c-5.6-2.4-10.8-5.7-15.3-9.7c-0.2-0.2-0.2-0.4,0-0.6c0,0,0,0,0,0c4.2-3.7,8.4-7.8,12.7-12.3
		c4.4-4.6,8.8-10.4,7.9-17c-0.9-6.5-7.4-10.7-13.4-11.7c-7-1.2-14.9-1.2-23.7,0c-0.4,0-0.7-0.2-0.7-0.6c0,0,0-0.1,0-0.1
		c0.4-7,2.2-13.8,5.4-20.3c0.2-0.4,0.6-0.5,1-0.3c0,0,0.1,0,0.1,0.1c8.2,5.9,35.3,23,40.6,4.6c0.9-3.2,1-6.8,0.3-10.5
		c-1.4-7.3-3.2-14.3-5.4-21.1c-0.1-0.4,0.1-0.8,0.5-0.9c0,0,0,0,0.1,0c6.4-1.2,12.8-1.3,19.3-0.1c0.3,0.1,0.5,0.3,0.4,0.6
		c0,0,0,0,0,0c-1.6,7.2-3,14.1-4.2,20.8c-0.7,3.9-1.5,8.2,0.2,11.9c4.2,8.9,13.1,7.5,20.6,3.5c6.4-3.4,12.4-7.5,18.1-12.1
		c0.2-0.2,0.6-0.1,0.8,0.1c0,0,0,0,0,0.1c3.6,6.2,5.9,12.7,6.9,19.5c0,0.3-0.2,0.7-0.5,0.7c0,0-0.1,0-0.1,0
		c-7.4-0.2-14.7,0.4-21.8,1.8c-6.4,1.3-12.2,4-14.1,10.6c-1.1,3.8-0.3,7.4,2.5,10.9c5.8,7.1,13.1,12.4,20.8,18
		c0.3,0.2,0.3,0.6,0.1,0.8c0,0,0,0,0,0c-4.3,4.6-9.2,8.4-14.7,11.3c-0.4,0.2-0.8,0.1-1-0.3c0,0,0-0.1-0.1-0.1
		c-2.5-8.5-11.8-33.3-24.6-27.7c-9.8,4.3-15.5,20-17.4,29.7c-0.1,0.4-0.5,0.7-1,0.7C897.9,1469,897.9,1469,897.8,1468.9z"/>
	<path d="M366.3,1397.4c-2,11.4,7,17.9,17.3,13.1c6.6-3.1,13.4-7.4,20.2-12.9c0.2-0.2,0.6-0.2,0.8,0.1c0,0,0,0,0.1,0.1
		c3.4,5.9,5.6,12,6.7,18.4c0,0.3-0.2,0.6-0.5,0.6c0,0-0.1,0-0.1,0c-8,0.2-15.8,0.4-23.5,2.5c-7.2,1.9-12.1,6.9-10.9,14.8
		c0.5,3.5,4.8,7.9,7.3,10.2c4.1,3.7,9.1,7.8,15.1,12.1c0.3,0.2,0.3,0.5,0.1,0.8c0,0,0,0,0,0.1c-4,4.3-8.8,8-14.3,11
		c-0.2,0.1-0.4,0-0.5-0.2c0,0,0,0,0-0.1c-2.8-9.1-7.5-21.1-15-26c-6.2-4-12.3,0.2-16,5.3c-4.4,6.2-7.5,13.7-9.3,22.3
		c-0.1,0.3-0.4,0.6-0.8,0.5c0,0-0.1,0-0.1,0c-5.4-2.4-10.2-5.4-14.5-9c-0.3-0.2-0.3-0.6-0.1-0.9c0,0,0,0,0.1-0.1
		c6.3-5.8,13.6-12.2,17.8-19.5c1.2-2.1,1.8-4.4,1.8-7c-0.1-9.9-11.5-13-19.3-13.2c-5.7-0.1-11.2,0.1-16.4,0.6
		c-0.4,0-0.6-0.1-0.6-0.6c0.5-7.1,2.3-13.6,5.4-19.7c0.1-0.2,0.4-0.3,0.6-0.2c0,0,0,0,0.1,0c7.9,5.7,31.6,20.6,38,6.7
		c2.5-5.4,1.5-11,0.2-16.6c-1.2-5.1-2.5-10.2-4.1-15.4c-0.2-0.7,0-1.1,0.8-1.2c6.2-0.9,12.1-0.9,17.6-0.1c0.5,0.1,0.9,0.6,0.8,1.1
		c0,0,0,0.1,0,0.1C369.1,1382.2,367.7,1389.7,366.3,1397.4z"/>
</g>
</svg>
